<?xml version="1.0" encoding="utf-8"?>
<!-- Generator: Adobe Illustrator 25.4.1, SVG Export Plug-In . SVG Version: 6.00 Build 0)  -->
<svg version="1.1" id="Layer_1" xmlns="http://www.w3.org/2000/svg" xmlns:xlink="http://www.w3.org/1999/xlink" x="0px" y="0px"
     viewBox="-60 -60 1120 1120" style="enable-background:new 0 0 1000 1000; background-color: #1e1e1e; border-radius: 4px" xml:space="preserve">
<style type="text/css">
	.st0{fill:#FF9603;}
    .st1{fill:#eaeaea;}
</style>
    <rect height="1120" width="1120" x="-60" y="-60" rx="140" ry="140"></rect>
    <g>
	<g>
		<g>
			<path class="st0" d="M1000,251.07h-99.55v-99.11c0-28.94-23.46-52.41-52.41-52.41h-99.21V0l99.62,0
				C932.15,0,1000,67.85,1000,151.54V251.07z"/>
		</g>
        <g>
			<path class="st0" d="M99.55,251.07H0v-99.53C0,67.85,67.85,0,151.54,0l99.53,0v99.55h-99.11c-28.94,0-52.41,23.46-52.41,52.41
				L99.55,251.07z"/>
		</g>
        <g>
			<path class="st0" d="M848.46,1000h-99.62v-99.55h99.21c28.94,0,52.41-23.46,52.41-52.41v-99.21H1000v99.62
				C1000,932.15,932.15,1000,848.46,1000z"/>
		</g>
        <g>
			<path class="st0" d="M251.07,1000h-99.53C67.85,1000,0,932.15,0,848.46v-99.62h99.55v99.21c0,28.94,23.46,52.41,52.41,52.41
				h99.11V1000z"/>
		</g>
	</g>
        <g>
		<path class="st1" d="M953.53,453.78L751.38,251.64c-25.58-25.58-67.06-25.58-92.64,0l-35.73,35.73c-4.26,4.26-4.26,11.18,0,15.44
			l189.58,189.57c4.26,4.26,4.26,11.18,0,15.44l-58,58l-0.35-0.35l-41.85,41.85c-3.66,3.66-9.55,4.16-13.83,1.52l-43.4-43.4
			c-4.26-4.26-11.18-4.26-15.44,0l-74.33,74.33c-4.26,4.26-4.26,11.18,0,15.44l24.08,24.08l-0.21,0.21l69.15,69.15
			c12.83,12.82,29.65,19.18,46.44,19.1c16.84,0.06,33.69-6.34,46.54-19.18l43.45-43.45l158.7-158.7
			C979.11,520.84,979.11,479.36,953.53,453.78z"/>
            <path class="st1" d="M639.72,434.76l-74.33-74.33c-4.26-4.26-11.18-4.26-15.44,0L345.68,564.69c-0.3,0.24-0.59,0.5-0.87,0.78
			l-42.93,42.93c-3.87,3.13-9.38,3.21-13.34,0.27L187.71,507.85c-3.82-3.82-4.19-10.1-1.13-14.41c0.28-0.37,0.58-0.72,0.92-1.06
			l100.54-100.54c3.99-3.2,9.95-3.23,13.97-0.08l42.85,42.85c4.26,4.26,11.18,4.26,15.44,0l74.33-74.34
			c4.26-4.26,4.26-11.17,0-15.44l-24.36-24.36l0.06-0.06l-69.15-69.15c-21.57-21.57-54.45-24.87-79.49-9.91
			c-4.66,2.75-9.05,6.13-13.05,10.13l-43.45,43.45l0.06,0.06l-30.85,30.85L46.13,453.73c-7.28,7.26-12.49,15.81-15.64,24.91
			c-4.28,12.12-4.8,25.24-1.57,37.68c2.81,11.05,8.53,21.52,17.2,30.16l182.12,181.75l20.13,20.42c6,5.86,12.82,10.36,20.05,13.52
			c24.04,10.66,53.18,6.14,72.88-13.56L639.72,450.2C643.98,445.94,643.98,439.03,639.72,434.76z"/>
	</g>
</g>
</svg>
